<?xml version="1.0" encoding="iso-8859-1"?>
<!-- Generator: Adobe Illustrator 19.0.0, SVG Export Plug-In . SVG Version: 6.00 Build 0)  -->
<svg version="1.1" id="Layer_1" xmlns="http://www.w3.org/2000/svg" xmlns:xlink="http://www.w3.org/1999/xlink" x="0px" y="0px"
	 viewBox="0 0 512 512" style="enable-background:new 0 0 512 512;" xml:space="preserve">
<circle style="fill:#3A67FA;" cx="256" cy="256" r="256"/>
<path style="fill:#2451D1;" d="M497.228,341.857L381.093,225.723l-88.316,13.576l-68.389-61.264l-93.658,13.033l-19.725,151.09
	l159.634,169.419C375.51,505.661,463.494,436.629,497.228,341.857z"/>
<path style="fill:#FFFFFF;" d="M233.496,241.567c5.072-7.897,7.97-17.315,7.801-27.415c-0.446-27.026-22.938-48.5-49.967-48.5
	h-75.462c-3.534,0-6.399,2.865-6.399,6.399v165.952c0,3.534,2.865,6.399,6.399,6.399h84.296c31.285,0,57.203-25.078,57.327-56.363
	C257.572,268.866,248.06,251.868,233.496,241.567L233.496,241.567z M142.574,198.758h49.402c8.945,0,16.225,7.278,16.225,16.225
	c0,8.945-7.28,16.224-16.225,16.224h-49.402V198.758z M200.897,311.296h-58.323v-46.983h58.323
	c12.953,0,23.492,10.542,23.492,23.492C224.387,300.758,213.851,311.296,200.897,311.296L200.897,311.296z"/>
<g>
	<path style="fill:#D1D1D1;" d="M402.532,276.27c0-38.64-30.455-70.079-67.891-70.079c-37.438,0-67.893,31.439-67.893,70.079
		c0,38.643,30.458,70.078,67.893,70.078c22.714,0,43.822-11.643,56.463-31.148c1.574-2.434,3.007-4.975,4.277-7.594
		c0.921-1.901-0.478-4.115-2.591-4.117l-33.373-0.084c-0.736,0-1.439,0.3-1.967,0.815c-6.303,6.127-14.027,9.025-22.807,9.025
		c-16.587,0-30.489-12.405-33.951-28.941h95.199c3.668,0,6.642-2.975,6.642-6.646v-1.389H402.532z M334.641,239.297
		c12.145,0,22.852,6.659,29.075,16.715h-58.154C311.787,245.957,322.493,239.297,334.641,239.297L334.641,239.297z"/>
	<path style="fill:#D1D1D1;" d="M362.853,197.968h-60.218c-2.808,0-5.087-2.279-5.087-5.087v-15.105
		c0-2.808,2.279-5.087,5.087-5.087h60.218c2.808,0,5.084,2.279,5.084,5.087v15.105C367.938,195.693,365.661,197.968,362.853,197.968
		L362.853,197.968z"/>
</g>
<g>
</g>
<g>
</g>
<g>
</g>
<g>
</g>
<g>
</g>
<g>
</g>
<g>
</g>
<g>
</g>
<g>
</g>
<g>
</g>
<g>
</g>
<g>
</g>
<g>
</g>
<g>
</g>
<g>
</g>
</svg>
