<?xml version="1.0" encoding="iso-8859-1"?>
<!-- Generator: Adobe Illustrator 19.0.0, SVG Export Plug-In . SVG Version: 6.00 Build 0)  -->
<svg version="1.1" id="Layer_1" xmlns="http://www.w3.org/2000/svg" xmlns:xlink="http://www.w3.org/1999/xlink" x="0px" y="0px"
	 viewBox="0 0 291.319 291.319" style="enable-background:new 0 0 291.319 291.319;" xml:space="preserve">
<g>
	<path style="fill:#E4E7E7;" d="M145.659,0c80.45,0,145.66,65.219,145.66,145.66c0,80.45-65.21,145.659-145.66,145.659
		S0,226.109,0,145.66C0,65.219,65.21,0,145.659,0z"/>
	<path style="fill:#FF0084;" d="M136.665,145.623c0,20.055-16.323,36.324-36.47,36.324s-36.47-16.268-36.47-36.324
		s16.323-36.333,36.47-36.333S136.665,125.568,136.665,145.623z"/>
	<path style="fill:#0063DC;" d="M227.702,145.623c0,20.055-16.323,36.324-36.47,36.324s-36.469-16.268-36.469-36.324
		s16.323-36.333,36.469-36.333S227.702,125.568,227.702,145.623z"/>
</g>
<g>
</g>
<g>
</g>
<g>
</g>
<g>
</g>
<g>
</g>
<g>
</g>
<g>
</g>
<g>
</g>
<g>
</g>
<g>
</g>
<g>
</g>
<g>
</g>
<g>
</g>
<g>
</g>
<g>
</g>
</svg>
